<?xml version="1.0" standalone="no"?>
<!DOCTYPE svg PUBLIC "-//W3C//DTD SVG 20010904//EN"
 "http://www.w3.org/TR/2001/REC-SVG-20010904/DTD/svg10.dtd">
<svg version="1.0" xmlns="http://www.w3.org/2000/svg"
 width="251.000000pt" height="251.000000pt" viewBox="0 0 251.000000 251.000000"
 preserveAspectRatio="xMidYMid meet">

<g transform="translate(0.000000,251.000000) scale(0.100000,-0.100000)"
fill="#000000" stroke="none">
<path d="M1199 2465 c-83 -27 -135 -105 -146 -221 -3 -35 -10 -64 -14 -64 -5
0 -9 6 -10 13 0 6 -17 36 -37 66 -92 136 -253 157 -339 45 -35 -46 -43 -135
-19 -217 21 -72 21 -72 -11 -49 -71 48 -173 77 -238 67 -127 -21 -192 -154
-132 -273 12 -25 43 -69 69 -98 l48 -52 -103 -4 c-112 -4 -158 -21 -209 -75
-72 -76 -61 -173 30 -255 34 -31 133 -78 162 -78 28 0 3 -18 -45 -34 -106 -33
-200 -135 -200 -216 0 -121 149 -210 303 -182 28 5 52 7 52 5 0 -3 -18 -26
-41 -51 -104 -119 -120 -224 -46 -309 76 -86 184 -85 325 4 47 29 66 33 43 7
-16 -17 -35 -109 -35 -164 0 -100 52 -167 147 -191 41 -10 54 -9 93 6 58 22
131 96 169 171 l30 59 6 -70 c13 -138 73 -236 155 -256 114 -26 207 33 237
152 9 35 19 82 23 104 l6 40 17 -25 c77 -117 150 -170 233 -170 81 0 143 42
175 119 19 45 11 146 -18 210 -10 24 -18 45 -16 47 2 2 23 -10 47 -26 95 -63
189 -77 272 -41 132 57 133 227 2 347 -24 22 -44 42 -44 45 0 2 46 4 103 4 87
0 109 3 150 24 66 32 99 79 105 147 5 61 -5 89 -52 142 -31 34 -155 102 -187
102 -11 0 -19 5 -19 10 0 6 7 10 16 10 28 0 140 57 178 90 58 52 81 129 57
193 -15 39 -80 96 -125 110 -23 6 -83 11 -134 11 l-93 -1 29 26 c33 30 82 94
99 131 60 130 -29 260 -177 260 -40 0 -132 -36 -178 -68 -16 -12 -32 -22 -35
-22 -3 0 2 18 9 40 52 151 9 267 -111 299 -94 24 -197 -37 -275 -164 l-25 -40
-3 35 c-4 58 -22 148 -35 172 -50 94 -141 134 -238 103z m140 -62 c14 -11 37
-41 51 -69 23 -44 25 -60 24 -164 -2 -118 -18 -218 -70 -415 l-26 -100 -63 -1
-62 -2 -17 62 c-62 221 -91 473 -66 575 28 119 143 176 229 114z m-481 -87
c71 -37 128 -125 175 -271 23 -68 97 -373 97 -397 0 -4 -22 -19 -49 -32 l-49
-25 -79 92 c-154 179 -210 262 -256 379 -35 86 -37 173 -5 213 39 50 113 68
166 41z m949 -21 c81 -54 61 -206 -51 -373 -44 -67 -212 -269 -255 -306 -22
-20 -22 -20 -75 6 l-53 26 48 188 c54 209 102 320 170 398 72 81 150 104 216
61z m-1266 -270 c67 -35 139 -103 252 -240 50 -60 113 -136 140 -168 l49 -57
-33 -43 c-18 -23 -36 -46 -40 -51 -8 -9 -366 173 -469 239 -140 90 -198 218
-133 296 55 65 135 74 234 24z m1637 15 c41 -25 66 -81 58 -129 -3 -19 -20
-57 -38 -83 -59 -88 -163 -155 -485 -312 l-102 -49 -22 27 c-12 16 -31 36 -42
46 -19 19 -19 19 9 53 126 149 302 340 346 376 106 87 207 113 276 71z m197
-418 c45 -23 75 -66 75 -109 0 -64 -79 -137 -185 -169 -79 -24 -266 -44 -439
-46 l-159 -3 -13 55 c-11 49 -11 56 4 68 30 23 305 159 367 181 149 54 275 62
350 23z m-1951 -12 c165 -42 463 -188 450 -220 -4 -8 -11 -35 -17 -59 l-11
-44 -246 6 c-329 7 -419 27 -499 110 -48 51 -54 110 -15 156 16 19 46 42 69
52 54 25 170 25 269 -1z m987 -42 c72 -33 128 -89 165 -164 25 -52 29 -70 29
-149 0 -78 -4 -97 -28 -147 -36 -73 -119 -150 -195 -179 -40 -15 -81 -22 -137
-23 -72 -1 -88 2 -147 32 -106 52 -169 140 -190 264 -26 159 69 314 231 380
69 27 198 21 272 -14z m716 -333 c232 -13 372 -130 307 -256 -10 -21 -33 -39
-71 -56 -50 -23 -64 -25 -137 -20 -111 8 -238 50 -424 142 l-153 74 7 53 c4
29 9 55 11 58 6 6 272 17 328 13 22 -1 82 -5 132 -8z m-1280 -8 c1 -1 5 -25 8
-54 l7 -51 -123 -65 c-229 -122 -425 -185 -529 -171 -67 9 -121 42 -143 87
-58 117 94 231 345 257 67 7 427 4 435 -3z m77 -212 c43 -64 51 -43 -79 -201
-122 -149 -260 -284 -321 -314 -28 -13 -73 -26 -105 -28 -51 -4 -59 -2 -92 27
-51 45 -64 90 -42 147 26 68 86 136 167 190 63 43 412 232 429 234 3 0 23 -25
43 -55z m1016 -102 c175 -95 259 -170 285 -256 17 -56 9 -91 -27 -127 -77 -78
-190 -54 -341 73 -39 33 -254 277 -301 342 -7 9 2 30 28 68 l38 55 117 -54
c64 -31 154 -76 201 -101z m-873 -20 c32 -15 59 -28 60 -28 6 -2 -61 -273 -88
-355 -60 -179 -119 -273 -195 -310 -114 -56 -213 43 -184 184 15 71 84 211
147 298 42 57 194 238 200 238 2 0 29 -12 60 -27z m521 -74 c91 -103 199 -258
232 -331 11 -26 25 -73 31 -104 20 -109 -33 -184 -132 -184 -83 0 -165 84
-223 226 -22 53 -116 406 -116 433 0 11 100 60 115 57 6 -1 47 -45 93 -97z
m-227 -125 c66 -268 71 -422 18 -525 -41 -82 -139 -105 -203 -49 -55 49 -71
105 -71 245 1 127 10 191 52 373 l27 113 70 -3 70 -3 37 -151z"/>
</g>
</svg>
